# xmcd
#
# Track frame offsets: 
#        150
#        19975
#        39580
#        60782
#        80497
#        101802
#        123002
#
# Disc length: 1894 seconds
#
# Revision: 1
# Processed by: cddbd v1.5.2PL0 Copyright (c) Steve Scherf et al.
# Submitted via: ExactAudioCopy v1.3
#
DISCID=4d076407
DTITLE=Sweet Sable - Old Times' Sake [CDM)
DYEAR=1993
DGENRE=R&B
TTITLE0=Old Times' Sake (I Need Another B Mix)
TTITLE1=Old Times' Sake (Original Recipe Mix)
TTITLE2=Old Times' Sake (Blunted Bass Mix)
TTITLE3=Old Times' Sake (After Hours Mix)
TTITLE4=Old Times' Sake (I'm F.... Up Mix)
TTITLE5=Old Times' Sake (Instrumental)
TTITLE6=Old Times' Sake (A Cappella)
EXTD=
EXTT0=
EXTT1=
EXTT2=
EXTT3=
EXTT4=
EXTT5=
EXTT6=
PLAYORDER=
